<?xml version="1.0" encoding="utf-8"?>
<!-- Generator: Adobe Illustrator 25.0.1, SVG Export Plug-In . SVG Version: 6.00 Build 0)  -->
<svg version="1.1" id="Calque_1" xmlns="http://www.w3.org/2000/svg" xmlns:xlink="http://www.w3.org/1999/xlink" x="0px" y="0px"
	 viewBox="0 0 206.67 235.79" style="enable-background:new 0 0 206.67 235.79;" xml:space="preserve">
<style type="text/css">
	.st0{fill:#5A5A5A;}
	.st1{fill:#1DB4DB;}
</style>
<g>
	<path class="st0" d="M155.37,93.51c8.05,10.96,12.75,24.52,12.54,39.13c-0.52,35.6-29.91,64.15-65.52,63.63
		c-35.6-0.52-64.14-29.91-63.62-65.52c0.4-27.39,17.9-50.59,42.16-59.6L66.26,44.12C32.63,58.37,8.8,91.44,8.23,130.31
		c-0.77,52.52,41.18,95.72,93.71,96.49c52.52,0.76,95.73-41.19,96.49-93.71c0.3-20.17-5.73-38.95-16.21-54.5L155.37,93.51
		L155.37,93.51z"/>
	<path class="st1" d="M88.11,43.1c-0.42-12.48,9.37-22.93,21.85-23.35c12.49-0.41,22.95,9.37,23.36,21.86
		c0.4,12.49-9.38,22.94-21.86,23.35C98.97,65.38,88.52,55.59,88.11,43.1L88.11,43.1z"/>
	<path class="st1" d="M131.58,116.79c6.88-34.06,31.61-55.54,54.5-79.48c2.04-2.13,0.54-11.61,0.48-14.19
		c-0.03-1.32-1.82-13.54-1.18-14.15c-25,23.65-48.49,45.64-54.97,81.07C128.95,98.06,132.67,111.35,131.58,116.79L131.58,116.79
		L131.58,116.79z"/>
</g>
</svg>
